<svg height="511pt" viewBox="0 -30 511.99271 511" width="511pt" xmlns="http://www.w3.org/2000/svg"><path d="m164.902344 123.121094c-11.664063-11.660156-30.574219-11.65625-42.234375.007812-11.660157 11.664063-11.660157 30.570313 0 42.234375 11.660156 11.664063 30.570312 11.664063 42.234375.007813 11.652344-11.679688 11.648437-30.585938-.007813-42.257813zm-12.074219 30.164062c-3.660156 3.664063-9.167969 4.757813-13.949219 2.777344-4.785156-1.980469-7.902344-6.648438-7.902344-11.824219 0-5.179687 3.117188-9.847656 7.902344-11.828125 4.78125-1.980468 10.289063-.882812 13.949219 2.777344 4.996094 4.996094 4.996094 13.101562 0 18.097656zm0 0"/><path d="m376.511719 415.351562c10.175781.027344 19.9375-4.015624 27.109375-11.226562 12.992187-12.960938 15.015625-33.292969 4.835937-48.558594-10.183593-15.265625-29.730469-21.207031-46.6875-14.195312-16.953125 7.011718-26.59375 25.027344-23.015625 43.023437 3.574219 17.996094 19.367188 30.960938 37.714844 30.957031zm-15.09375-53.46875c8.332031-8.332031 21.839843-8.332031 30.171875 0 8.332031 8.332032 8.332031 21.84375 0 30.175782-8.449219 8.039062-21.722656 8.039062-30.171875 0-4.003907-4.003906-6.25-9.429688-6.25-15.089844 0-5.65625 2.246093-11.085938 6.25-15.085938zm0 0"/><path d="m416.492188 5.496094c-3.203126-3.199219-7.542969-5-12.070313-5s-8.871094 1.800781-12.070313 5l-18.101562 18.066406-24.132812 24.132812-84.476563 84.480469c-4.804687 4.800781-7.5 11.3125-7.5 18.101563 0 6.792968 2.695313 13.304687 7.5 18.105468l3.113281 3.097657c5.746094 5.714843 13.863282 8.371093 21.878906 7.160156.039063-.007813.082032-.007813.121094 0l.757813-.085937h.136719l-16.554688 16.554687c-5.300781 5.296875-11.84375 11.449219-19.097656 18.003906-7.59375-6.828125-14.164063-12.996093-19.148438-17.972656l-16.519531-16.585937c.289063 0 .585937.050781.851563.09375.039062-.003907.082031-.003907.121093 0 8.015625 1.222656 16.132813-1.429688 21.878907-7.152344l3.121093-3.113282c9.996094-9.996093 9.996094-26.203124 0-36.199218l-84.476562-84.480469-24.082031-24.140625-18.101563-18.066406c-6.753906-6.449219-17.386719-6.449219-24.140625 0l-90.503906 90.453125c-6.660156 6.667969-6.660156 17.46875 0 24.132812l18.101562 18.109375 108.609375 108.628906c4.800781 4.800782 11.316407 7.5 18.105469 7.5s13.300781-2.699218 18.101562-7.5l3.105469-3.113281c5.382813-5.457031 8.023438-13.042969 7.1875-20.660156 0-.085937.050781-.152344.050781-.238281-.007812-.417969-.039062-.835938-.09375-1.246094 0-.257812-.042968-.488281-.078124-.734375l16.574218 16.527344c4.316406 4.320312 9.300782 9.566406 14.421875 15.183593-33.101562 25.835938-68.269531 49.253907-88.75 53.597657-4.816406 1.0625-9.507812 2.636719-13.992187 4.691406l-3.636719-3.632813c-3.199219-3.203124-7.542969-5.003906-12.070313-5.003906-4.527343 0-8.871093 1.800782-12.070312 5.003906l-12.007812 12.03125c-3.199219 3.199219-5 7.542969-5 12.070313s1.800781 8.867187 5 12.070313l3.21875 3.207031c-10.730469 22.839843-8.714844 49.632812 5.316406 70.605469 5.386718 7.953124 12.238281 14.808593 20.179687 20.207031 20.953125 14.160156 47.828125 16.191406 70.675781 5.351562l3.191407 3.199219c3.199219 3.203125 7.542969 5 12.070312 5 4.527344 0 8.867188-1.796875 12.070313-5l12.023437-12.066406c6.660157-6.664063 6.660157-17.46875 0-24.132813l-3.636719-3.644531c2.046876-4.472656 3.617188-9.148438 4.675782-13.949219 4.132812-19.371093 25.40625-51.996093 49.605468-83.542969 28.441407 37.042969 46.078126 66.558594 49.722657 83.488282 1.054687 4.820312 2.625 9.511718 4.675781 13.996094l-3.640625 3.644531c-3.203125 3.199219-5.003906 7.542969-5.003906 12.070312 0 4.527344 1.800781 8.871094 5.003906 12.070313l12.0625 12.066406c3.203125 3.203125 7.542969 5 12.074219 5 4.527344 0 8.867187-1.796875 12.070312-5l3.191406-3.191406c22.832032 10.824218 49.6875 8.796875 70.636719-5.332032 3.984375-2.691406 7.699219-5.757812 11.09375-9.15625 3.375-3.371093 6.414063-7.066406 9.070313-11.027343 14.054687-20.980469 16.082031-47.792969 5.34375-70.648438l3.214844-3.214843c3.203124-3.203126 5.003906-7.542969 5.003906-12.070313s-1.800782-8.871094-5.003906-12.070313l-12.054688-12.066406c-6.667969-6.664062-17.46875-6.664062-24.132812 0l-3.644532 3.644532c-4.464844-2.078126-9.152344-3.640626-13.96875-4.660157-17.808594-3.796875-49.203125-22.886719-88.746094-53.691406 5.210938-5.675781 10.078126-10.777344 14.410157-15.113281l16.554687-16.554688c-.042968.316406-.050781.589844-.09375.929688-.050781.4375-.074218.882812-.074218 1.324218 0 .074219.042968.144532.042968.21875-.78125 7.558594 1.855469 15.070313 7.191406 20.480469l3.105469 3.117188c4.800781 4.800781 11.3125 7.5 18.105469 7.5 6.789062 0 13.300781-2.699219 18.101562-7.5l108.640626-108.648438 18.097656-18.105469c6.664062-6.664062 6.664062-17.46875 0-24.132812zm54.304687 126.722656-12.074219 12.066406-90.503906-90.558594 12.066406-12.066406 45.226563 45.226563zm-384.339844-45.226562 45.226563-45.226563 12.066406 12.066406-90.480469 90.410157-12.074219-12.066407zm21.109375-69.394532 12.074219 12.074219-90.453125 90.453125-12.125-12.089844zm51.390625 214.03125-3.109375 3.117188c-1.597656 1.601562-3.769531 2.503906-6.035156 2.503906s-4.4375-.902344-6.039062-2.503906l-78.4375-78.4375 90.503906-90.515625 78.449218 78.449219c3.328126 3.332031 3.328126 8.734374 0 12.066406l-3.125 3.105468c-1.976562 1.902344-4.734374 2.761719-7.441406 2.320313-.179687 0-.347656 0-.527344-.042969-1.554687-.195312-3.125-.382812-5.265624-.460937h-.332032c-1.160156 0-2.3125 0-3.472656.085937-.496094 0-1 0-1.476562 0h-.566407c-4.066406.289063-8.09375 1.03125-11.996093 2.21875-.402344.121094-.734376.160156-1.144532.289063l-.179687.070312c-.109375.042969-.210938.058594-.3125.101563-1.332031.453125-2.613281 1.015625-3.910157 1.570312-.367187.152344-.785156.289063-1.132812.441406l-.15625.070313-.851562.402344c-.941407.414062-1.855469.886719-2.730469 1.421875l-1.957031 1.121094c-.230469.144531-.46875.261718-.699219.40625l-.289063.164062c-1.230468.851562-2.558594 1.707031-3.695312 2.558594l-.222656.199218c-.554688.417969-1.089844.851563-1.628907 1.277344-1.449219 1.144532-2.828125 2.371094-4.128906 3.679688-1.308594 1.308594-2.539063 2.6875-3.6875 4.136718-.433594.53125-.851563 1.066407-1.261719 1.605469l-.199218.238281c-.730469.957032-1.507813 2.089844-2.429688 3.492188-.179688.28125-.382812.554688-.5625.851562l-1.007812 1.785157c-.332032.527343-.511719 1.003906-.792969 1.535156-1.316407 2.46875-2.4375 5.035156-3.355469 7.679687-.058594.128907-.085938.265626-.136719.390626-.050781.128906 0 .1875-.074219.273437l-.121093.308594c-.152344.511719-.246094 1.058593-.390625 1.578125-.53125 1.832031-.964844 3.695312-1.296875 5.574218-.179688.953126-.308594 1.816407-.386719 2.558594-.144531 1.1875-.261719 2.371094-.339844 3.566406v.09375c-.136718 1.285157-.179687 2.582032-.128906 3.875v1.144532.902344c.058594 1.433593.230469 2.867187.425781 4.414062v.066406c0 .238282 0 .476563.050781.71875.457032 2.75-.433593 5.550782-2.394531 7.53125zm47.785157-6.390625-25.214844-25.136719c1.132812-2.351562 2.503906-4.578124 4.09375-6.648437.136718-.179687.28125-.324219.386718-.476563.101563-.15625.398438-.488281.578126-.71875l.085937-.109374c.757813-.90625 1.527344-1.808594 2.371094-2.664063.84375-.851563 1.707031-1.585937 2.621093-2.335937.34375-.214844.664063-.464844.957032-.746094.238281-.160156.441406-.347656.664062-.527344 1.898438-1.433594 3.929688-2.683594 6.066406-3.738281.101563 0 .179688-.09375.289063-.144531l25.148437 25.214843c4.875 4.875 11.09375 10.777344 18.347657 17.296875-6.5625 5.667969-13.5 11.496094-20.683594 17.332032-5.566406-6.125-11.007813-11.867188-15.726563-16.589844zm181.519531 97.621094c5.269531 1.050781 10.332031 2.945313 14.996093 5.617187.25.121094.507813.226563.773438.316407.171875.074219.335938.144531.503906.203125 1.875.796875 3.996094.796875 5.871094 0 .171875-.058594.332031-.128906.503906-.203125.992188-.417969 1.894532-1.023438 2.652344-1.785157l7.785156-7.78125 12.066406 12.066407-7.542968 7.542969c-.15625.160156-.207032.367187-.351563.527343-.367187.449219-.6875.929688-.957031 1.441407-.578125.902343-.917969 1.9375-.980469 3.003906-.089843.539062-.125 1.085937-.101562 1.632812.054687.515625.152343 1.027344.296875 1.527344.132812.570312.328125 1.125.582031 1.652344.09375.199218.09375.410156.203125.597656 10.523438 18.273438 9.820312 40.921875-1.816406 58.507812-1.402344 2.050782-2.945313 4.003907-4.617188 5.84375-.074218.085938-.1875.128907-.265625.222657-.617187.789062-1.285156 1.542969-1.996093 2.25l-.125.148437-.171876.152344c-.714843.703125-1.464843 1.367188-2.246093 1.996094-.09375.070312-.125.171875-.21875.246094-1.855469 1.683593-3.816407 3.238281-5.882813 4.652343-17.578125 11.605469-40.203125 12.296875-58.460937 1.785157-.1875-.113282-.402344-.113282-.597657-.207032-.523437-.253906-1.078124-.449218-1.644531-.578125-.503906-.152343-1.023437-.25-1.546875-.300781-.535156-.019531-1.074218.011719-1.601562.09375-.542969.050781-1.078125.15625-1.597656.316406-1.027344.402344-1.992188.953125-2.867188 1.628906-.164062.144532-.375.195313-.527344.351563l-7.546875 7.542969-12.066406-12.066406 7.84375-7.84375c.121094-.125.164063-.296876.28125-.425782.425781-.492187.785156-1.039062 1.074219-1.621094.230468-.386718.429687-.792968.597656-1.210937.183594-.59375.304688-1.207031.359375-1.828125.203125-1.035156.121094-2.109375-.238281-3.105469-.113282-.507812-.273438-1.007812-.488282-1.484375-.082031-.1875-.082031-.390625-.1875-.570312-2.65625-4.722656-4.5625-9.835938-5.640624-15.148438-5.375-25.128906-32.289063-63.914062-55.523438-93.867187 8.320312-10.382813 16.691406-20.34375 24.667969-29.457031 31.042969 24.296874 70.929687 52.113281 96.75 57.617187zm-82.976563-97.585937c-5.265625 5.257812-12.699218 13.191406-21.222656 22.75-.078125.09375-.1875.128906-.265625.230468-.074219.101563-.050781.121094-.09375.179688-34.132813 38.398437-86.296875 103.738281-94.0625 140.195312-1.085937 5.292969-2.992187 10.386719-5.648437 15.09375-.09375.171875-.085938.351563-.171876.519532-.242187.546874-.425781 1.121093-.546874 1.707031-.328126 1.015625-.390626 2.101562-.167969 3.148437.054687.535156.160156 1.066406.316406 1.578125.433594 1.019531.988281 1.976563 1.652344 2.859375.128906.136719.171875.324219.308593.460938l7.851563 7.84375-12.074219 12.03125-7.535156-7.542969c-.164062-.15625-.367188-.207031-.53125-.351563-.875-.679687-1.84375-1.230468-2.875-1.636718-.511719-.148438-1.03125-.246094-1.5625-.300782-.539062-.089843-1.089844-.121093-1.636719-.101562-.515625.054688-1.023437.152344-1.519531.300781-.589844.125-1.164062.320313-1.707031.578125-.195313.09375-.410157.09375-.597657.207032-18.265624 10.523437-40.914062 9.824218-58.496093-1.8125-2.046875-1.398438-3.996094-2.941407-5.835938-4.605469-.09375-.078125-.136719-.195313-.238281-.28125-1.6875-1.324219-3.207031-2.84375-4.53125-4.53125-.078125-.09375-.1875-.128907-.265625-.222657-1.6875-1.851562-3.242187-3.824218-4.648437-5.898437-11.621094-17.570313-12.308594-40.203125-1.785157-58.453125.109375-.195312.109375-.40625.214844-.605469.238281-.519531.429687-1.0625.5625-1.621093.371094-1.570313.335937-3.207032-.101563-4.761719-.175781-.492188-.402343-.964844-.675781-1.40625-.269531-.523438-.589843-1.015625-.964843-1.46875-.144532-.160157-.195313-.367188-.347657-.519531l-7.542969-7.542969 12.074219-12.066407 7.832031 7.839844c.726563.699219 1.574219 1.257813 2.5 1.65625.226563.109375.460938.207032.699219.289063.902344.34375 1.859375.527343 2.824219.546875.964844-.023438 1.921875-.207032 2.824219-.546875.234375-.078125.460937-.175781.683593-.28125.222657-.101563.460938-.144531.683594-.273438 4.726563-2.660156 9.835938-4.570312 15.144532-5.664062 26.265624-5.589844 67.601562-34.289063 103.015624-62.679688.09375-.074219.207032-.101562.300782-.175781.09375-.078125.066406-.113281.109375-.15625 12.800781-10.308594 24.816406-20.480469 35.054687-29.558594 10.460938-9.277344 19.167969-17.398437 24.746094-23.039062l25.285156-25.199219c2.488282 1.191406 4.835938 2.648437 7.003906 4.351563.265626.230468.539063.476562.855469.699218l.121094.09375c.902344.761719 1.796875 1.519532 2.652344 2.363282.851562.847656 1.613281 1.757812 2.371093 2.664062l.070313.085938c.21875.296874.453125.582031.707031.851562l.136719.195312-.203125-.195312c.125.1875.332031.417969.519531.648438.671875.855468 1.347657 1.792968 1.925781 2.738281.65625 1.066406 1.253907 2.167969 1.792969 3.296875.042969.09375.09375.179687.144531.28125zm62.933594 9.480468c-1.601562 1.601563-3.773438 2.503906-6.039062 2.503906-2.261719 0-4.4375-.902343-6.035157-2.503906l-3.105469-3.113281c-1.90625-1.980469-2.765624-4.742187-2.3125-7.449219 0-.179687 0-.367187.039063-.554687.199219-1.546875.386719-3.109375.460937-5.242188v-.316406c.042969-1.441406 0-2.875-.101562-4.265625 0-.230469 0-.46875 0-.699219v-.273437c-.269531-4.273438-1.046875-8.5-2.3125-12.59375-.085938-.300782-.117188-.539063-.210938-.855469l-.050781-.125c-.546875-1.648437-1.214843-3.253906-1.914062-4.839844-.085938-.1875-.152344-.410156-.230469-.589843v-.074219c-.152344-.324219-.289062-.660157-.441406-.984375-.410156-.925782-.882813-1.828125-1.410156-2.695313l-1.050782-1.808593c-.167968-.289063-.324218-.589844-.5-.855469l-.136718-.238281c-.855469-1.234376-1.707032-2.558594-2.613282-3.703126l-.179687-.210937c-.417969-.554687-.851563-1.09375-1.277344-1.632813-1.152344-1.445312-2.382813-2.828124-3.6875-4.136718-1.71875-1.683594-3.539063-3.261719-5.453125-4.71875l-.09375-.078125c-.144531-.117188-.289062-.246094-.433594-.359375-.523437-.398438-1.09375-.851563-1.707031-1.234375-.617187-.386719-1.09375-.753907-1.648437-1.109375-.351563-.230469-.632813-.429688-1.03125-.683594l-1.707032-.949219c-1.023437-.578125-2.074218-1.109375-3.132812-1.621093-.296875-.136719-.640625-.355469-.921875-.476563-.144531-.058594-.316407-.109375-.460938-.179687-1.574219-.710938-3.183593-1.34375-4.828125-1.894532-.308594-.109375-.554687-.230468-.855468-.339844l-.261719-.070312c-2.476563-.757812-5-1.34375-7.554688-1.75-.433593-.074219-.851562-.125-1.21875-.175781-1.425781-.199219-2.859375-.34375-4.265625-.429688-.933594-.085937-1.835937-.117187-2.679687-.125-.214844 0-.429688 0-.640625 0-.214844 0-.359375 0-.53125 0h-2.105469c-1.46875.066407-2.9375.230469-4.394531.425781h-.128906c-.214844 0-.425782 0-.648438.042969-2.710938.441407-5.46875-.421875-7.449219-2.320312l-3.105469-3.109375c-3.332031-3.332032-3.332031-8.734375 0-12.066406l78.445313-78.445313 90.359375 90.480469zm114.644531-114.652344-90.453125-90.453124 12.074219-12.078126 90.445313 90.464844zm0 0"/><path d="m347.097656 123.113281c-11.664062 11.664063-11.660156 30.574219.003906 42.234375 11.660157 11.664063 30.570313 11.664063 42.234376 0 11.664062-11.660156 11.664062-30.570312.003906-42.234375-11.679688-11.640625-30.574219-11.636719-42.25.007813zm30.164063 30.179688c-4.996094 5-13.101563 4.996093-18.097657-.003907-4.996093-4.996093-4.996093-13.097656 0-18.097656 4.996094-5 13.101563-5 18.097657-.003906 2.402343 2.398438 3.753906 5.65625 3.753906 9.054688 0 3.394531-1.351563 6.652343-3.753906 9.050781zm0 0"/><path d="m108.371094 349.816406c-14.996094 14.996094-14.996094 39.3125 0 54.308594s39.308594 14.996094 54.304687 0c14.996094-14.996094 14.996094-39.3125 0-54.308594-7.167969-7.265625-16.949219-11.351562-27.152343-11.351562-10.207032 0-19.984376 4.085937-27.152344 11.351562zm42.238281 42.242188c-8.449219 8.039062-21.722656 8.039062-30.171875 0-8.332031-8.332032-8.328125-21.839844 0-30.167969 8.332031-8.332031 21.839844-8.332031 30.167969 0 8.332031 8.328125 8.332031 21.835937.003906 30.167969zm0 0"/></svg>